<svg width="270" height="233" viewBox="0 0 270 233" fill="none" xmlns="http://www.w3.org/2000/svg">
<path d="M171.511 0C196.629 5.59516e-05 212.676 23.0261 213.608 34.3779C260.008 38.8685 257.089 83.2399 247.989 100.349H222.245C221.417 100.349 220.745 101.02 220.745 101.849C220.745 102.677 221.417 103.349 222.245 103.349H250.791C250.848 103.349 250.904 103.344 250.959 103.338C259.841 111.89 274.05 125.277 268.792 150.739C262.887 179.333 229.32 181.038 211.915 179.333C216.295 225.009 170.098 247.337 135.344 219.009C121.926 234.508 100.058 233.638 85.6924 229.789C66.0894 224.536 57.8155 205.884 56.8018 193.719V181.048C41.6148 182.141 9.35458 177.284 1.80664 149.114C-5.74095 120.945 12.1778 105.445 22.0811 101.216C20.5767 98.1635 19.1718 94.4719 18.1328 90.3955C18.2852 90.4477 18.4481 90.4775 18.6182 90.4775H39.7344C40.5625 90.4773 41.2343 89.8057 41.2344 88.9775C41.2341 88.1495 40.5624 87.4778 39.7344 87.4775H18.6182C18.2045 87.4775 17.83 87.6451 17.5586 87.916C13.6436 69.175 18.0526 43.8275 54.5215 34.0557C59.2835 10.4514 98.1282 -14.5921 137.239 15.0566C144.127 6.74989 155.144 0 171.511 0ZM87.7451 28.8467C77.3712 28.8467 68.9612 37.257 68.9609 47.6309V143.299C68.961 166.771 87.9889 185.799 111.461 185.799H119.363V191.084C119.363 196.33 115.11 200.584 109.863 200.584H89.002V193.407L86.4414 195.968L76.585 205.825L75.5244 206.886L89.002 220.363V214.198H99.2549C100.083 214.198 100.755 213.526 100.755 212.698C100.755 211.87 100.083 211.199 99.2549 211.198H86.002V213.12L79.7666 206.886L86.002 200.65V203.584H109.863C116.767 203.584 122.363 197.987 122.363 191.084V185.799H129.358V197.912C129.358 209.049 138.387 218.077 149.523 218.077C160.66 218.077 169.688 209.049 169.688 197.912V146.528H205.519C215.7 146.528 223.955 138.274 223.955 128.092C223.955 117.91 215.7 109.655 205.518 109.655H169.688V101.651C169.689 94.748 175.285 89.1514 182.188 89.1514H227.121C237.589 89.1511 246.076 80.6647 246.076 70.1963C246.076 59.728 237.589 51.2415 227.121 51.2412H176.858C150.625 51.2413 129.359 72.5079 129.358 98.7412V126.36H121.868C121.04 126.361 120.369 127.032 120.368 127.86C120.368 128.689 121.04 129.36 121.868 129.36H129.358V151.082H121.029C113.021 151.082 106.529 144.59 106.529 136.582V47.6309C106.529 37.2572 98.1188 28.847 87.7451 28.8467ZM166.688 197.912C166.688 207.392 159.003 215.077 149.523 215.077C140.044 215.077 132.358 207.392 132.358 197.912V185.799H151.892C158.15 185.799 163.634 182.486 166.688 177.519V197.912ZM148.263 193.629C145.043 193.629 142.433 196.239 142.433 199.458C142.433 202.678 145.043 205.288 148.263 205.288C151.482 205.288 154.093 202.678 154.093 199.458C154.092 196.239 151.482 193.629 148.263 193.629ZM194.355 193.629C191.7 193.629 189.547 195.781 189.547 198.437C189.547 201.092 191.7 203.244 194.355 203.244C197.01 203.244 199.163 201.091 199.163 198.437C199.163 195.782 197.01 193.629 194.355 193.629ZM82.0801 181.79C79.425 181.79 77.2727 183.943 77.2725 186.598C77.2726 189.253 79.4249 191.405 82.0801 191.405C84.7349 191.405 86.8875 189.253 86.8877 186.598C86.8875 183.943 84.7349 181.79 82.0801 181.79ZM187.022 167.227C182.311 167.227 178.492 171.046 178.491 175.758C178.491 180.47 182.311 184.29 187.022 184.29C191.133 184.29 194.564 181.383 195.373 177.513H208.545C209.373 177.512 210.045 176.841 210.045 176.013C210.045 175.185 209.373 174.513 208.545 174.513H195.463C194.86 170.392 191.311 167.227 187.022 167.227ZM87.7451 31.8467C96.4619 31.847 103.529 38.914 103.529 47.6309V136.582C103.529 146.247 111.364 154.082 121.029 154.082H151.892C159.821 154.082 166.25 160.511 166.25 168.44C166.25 176.37 159.821 182.799 151.892 182.799H121.178C121.077 182.777 120.971 182.766 120.863 182.766C120.756 182.766 120.651 182.777 120.55 182.799H111.461C89.6457 182.799 71.961 165.114 71.9609 143.299V47.6309C71.9612 38.9138 79.028 31.8467 87.7451 31.8467ZM148.683 162.896C145.463 162.896 142.853 165.507 142.853 168.727C142.853 171.946 145.463 174.557 148.683 174.557C151.902 174.556 154.512 171.946 154.512 168.727C154.511 165.507 151.902 162.897 148.683 162.896ZM240.856 154.162C235.937 154.162 231.861 157.769 231.126 162.482H200.73C199.902 162.483 199.231 163.154 199.23 163.982C199.231 164.811 199.902 165.482 200.73 165.482H231.117C231.827 170.224 235.917 173.86 240.856 173.86C246.296 173.86 250.706 169.45 250.706 164.011C250.706 158.572 246.296 154.162 240.856 154.162ZM38.9277 155.272C34.2161 155.273 30.3967 159.093 30.3965 163.805C30.3966 168.516 34.216 172.336 38.9277 172.336C43.0382 172.336 46.4694 169.429 47.2783 165.559H60.4492C61.2775 165.558 61.9492 164.887 61.9492 164.059C61.9489 163.231 61.2773 162.559 60.4492 162.559H47.3682C46.7649 158.438 43.2161 155.273 38.9277 155.272ZM240.856 157.162C244.639 157.162 247.706 160.228 247.706 164.011C247.706 167.793 244.639 170.86 240.856 170.86C237.074 170.86 234.008 167.793 234.008 164.011C234.008 160.228 237.074 157.162 240.856 157.162ZM87.3223 61.5469C86.494 61.5469 85.8226 62.2187 85.8223 63.0469V137.727C85.8223 155.676 100.373 170.227 118.322 170.227H136.972C137.8 170.226 138.472 169.555 138.472 168.727C138.471 167.898 137.8 167.227 136.972 167.227H118.322C102.03 167.227 88.8223 154.019 88.8223 137.727V63.0469C88.8219 62.2188 88.1503 61.5471 87.3223 61.5469ZM227.121 54.2412C235.932 54.2415 243.076 61.3849 243.076 70.1963C243.076 79.0078 235.933 86.1511 227.121 86.1514H182.188C173.628 86.1514 166.689 93.0912 166.688 101.651V112.655H205.518C214.043 112.655 220.955 119.567 220.955 128.092C220.955 136.617 214.044 143.528 205.519 143.528H166.688V159.36C163.634 154.394 158.15 151.082 151.892 151.082H150.564V129.36H189.446C190.275 129.36 190.946 128.689 190.946 127.86C190.946 127.032 190.274 126.361 189.446 126.36H150.564V97.1494C150.565 82.5141 162.429 70.6494 177.064 70.6494H210.919C211.747 70.649 212.419 69.9775 212.419 69.1494C212.419 68.3215 211.747 67.6499 210.919 67.6494H177.064C160.772 67.6494 147.565 80.8572 147.564 97.1494V126.36H132.358V98.7412C132.359 74.1648 152.282 54.2413 176.858 54.2412H227.121ZM147.564 129.36V151.082H132.358V129.36H147.564ZM26.2607 131.859C21.3875 131.86 17.4369 135.81 17.4365 140.684C17.4365 145.557 21.3873 149.508 26.2607 149.508C30.6794 149.508 34.3398 146.26 34.9844 142.021H57.3096C58.1376 142.021 58.8096 141.35 58.8096 140.521C58.8093 139.694 58.1374 139.022 57.3096 139.021H34.9268C34.1489 134.943 30.5656 131.86 26.2607 131.859ZM26.2607 134.859C29.4771 134.86 32.0856 137.467 32.0859 140.684C32.0859 143.9 29.4773 146.508 26.2607 146.508C23.0442 146.508 20.4365 143.9 20.4365 140.684C20.4369 137.467 23.0444 134.86 26.2607 134.859ZM247.943 136.596C245.255 136.596 243.076 138.775 243.076 141.463C243.076 144.151 245.255 146.33 247.943 146.33C250.631 146.33 252.81 144.151 252.811 141.463C252.81 138.775 250.631 136.596 247.943 136.596ZM60.6055 125.558C58.2709 125.558 56.3782 127.451 56.3779 129.785C56.378 132.12 58.2708 134.013 60.6055 134.013C62.9398 134.012 64.8329 132.12 64.833 129.785C64.8328 127.451 62.9398 125.558 60.6055 125.558ZM201.992 122.093C198.773 122.093 196.163 124.703 196.163 127.923C196.163 131.142 198.773 133.753 201.992 133.753C205.212 133.753 207.822 131.142 207.822 127.923C207.822 124.703 205.212 122.093 201.992 122.093ZM240.856 115.014C236.114 115.014 232.271 118.859 232.271 123.601C232.271 128.343 236.114 132.186 240.856 132.187C245.598 132.186 249.443 128.343 249.443 123.601C249.443 118.859 245.598 115.014 240.856 115.014ZM240.856 118.014C243.942 118.014 246.443 120.516 246.443 123.601C246.443 126.686 243.942 129.186 240.856 129.187C237.771 129.186 235.271 126.686 235.271 123.601C235.271 120.515 237.771 118.014 240.856 118.014ZM45.96 101.653C39.7419 101.653 34.7004 106.694 34.7002 112.912C34.7002 119.13 39.7418 124.171 45.96 124.171C52.1778 124.17 57.2187 119.13 57.2188 112.912C57.2185 106.694 52.1776 101.654 45.96 101.653ZM45.96 104.653C50.5208 104.654 54.2185 108.351 54.2188 112.912C54.2187 117.473 50.5209 121.17 45.96 121.171C41.3987 121.171 37.7002 117.473 37.7002 112.912C37.7004 108.351 41.3988 104.653 45.96 104.653ZM119.304 33.1064C118.475 33.1064 117.804 33.7782 117.804 34.6064V91.0635C114.206 91.6814 111.469 94.8143 111.469 98.5879C111.469 102.806 114.888 106.225 119.105 106.225C123.323 106.224 126.742 102.805 126.742 98.5879C126.742 94.953 124.202 91.9125 120.8 91.1416C120.801 91.1168 120.804 91.0915 120.804 91.0664V34.6064C120.803 33.7784 120.132 33.1068 119.304 33.1064ZM119.105 93.9512C121.666 93.9514 123.742 96.0274 123.742 98.5879C123.742 101.149 121.666 103.224 119.105 103.225C116.545 103.225 114.469 101.149 114.469 98.5879C114.469 96.0273 116.545 93.9512 119.105 93.9512ZM52.2715 67.5459C47.8227 67.5459 44.1493 70.8567 43.5752 75.1484H18.6182C17.79 75.1484 17.1186 75.8204 17.1182 76.6484C17.1182 77.4769 17.7897 78.1484 18.6182 78.1484H43.6865C44.527 82.1189 48.0507 85.0986 52.2715 85.0986C57.1182 85.0982 61.0479 81.1691 61.0479 76.3223C61.0476 71.4756 57.1181 67.5463 52.2715 67.5459ZM52.2715 70.5459C55.4612 70.5463 58.0476 73.1325 58.0479 76.3223C58.0479 79.5123 55.4614 82.0982 52.2715 82.0986C49.0812 82.0986 46.4941 79.5125 46.4941 76.3223C46.4944 73.1322 49.0813 70.5459 52.2715 70.5459ZM147.72 47.874C145.032 47.874 142.853 50.0534 142.853 52.7412C142.853 55.4292 145.032 57.6084 147.72 57.6084C150.407 57.6081 152.587 55.429 152.587 52.7412C152.587 50.0535 150.407 47.8743 147.72 47.874ZM87.3223 44.1689C84.1027 44.1689 81.4924 46.7795 81.4922 49.999C81.4922 53.2187 84.1026 55.8291 87.3223 55.8291C90.5418 55.8289 93.1523 53.2186 93.1523 49.999C93.1521 46.7796 90.5417 44.1691 87.3223 44.1689ZM143.933 13.9199C143.104 13.9199 142.433 14.5917 142.433 15.4199C142.433 22.3235 148.029 27.9199 154.933 27.9199H178.794V24.9863L185.029 31.2217L178.794 37.457V35.5352H165.542C164.714 35.5352 164.042 36.2069 164.042 37.0352C164.042 37.8635 164.714 38.5352 165.542 38.5352H175.794V44.7002L178.354 42.1396L188.211 32.2822L189.271 31.2217L175.794 17.7441V24.9199H154.933C149.686 24.9199 145.433 20.6666 145.433 15.4199C145.432 14.5918 144.761 13.9201 143.933 13.9199ZM200.906 33.1064C197.718 33.1066 195.134 35.6911 195.134 38.8789C195.134 42.0669 197.718 44.6512 200.906 44.6514C204.094 44.6512 206.679 42.0668 206.679 38.8789C206.678 35.6911 204.094 33.1066 200.906 33.1064ZM200.906 36.1064C202.437 36.1066 203.678 37.348 203.679 38.8789C203.679 40.41 202.437 41.6512 200.906 41.6514C199.375 41.6512 198.134 40.41 198.134 38.8789C198.134 37.348 199.375 36.1066 200.906 36.1064Z" fill="#121826"/>
</svg>
