<svg width="318" height="374" viewBox="0 0 318 374" fill="none" xmlns="http://www.w3.org/2000/svg">
<path d="M66.9161 75.0575H40.6849M40.6849 87.3862H61.801M56.0302 138.93H79.3759M244.312 100.257H272.858M63.6326 162.468H82.5163" stroke="#121826" stroke-width="3" stroke-linecap="round"/>
<path d="M153.837 15.9056C114.726 -13.7434 83.3191 13.8084 78.5571 37.4127C32.2412 49.823 37.6324 87.3571 46.1175 104.573C36.2142 108.802 18.2947 124.302 25.8427 152.472C33.3907 180.642 65.6513 185.498 80.8381 184.405V197.076C81.8518 209.241 90.1256 227.893 109.729 233.146C124.094 236.995 145.962 237.866 159.38 222.366C194.134 250.694 240.331 228.367 235.951 182.691C253.356 184.395 286.923 182.691 292.828 154.097C298.733 125.503 280.085 112.138 272.004 103.747C281.121 86.6675 284.081 42.2289 237.644 37.735C236.712 26.3832 220.665 3.35732 195.547 3.35732C163.223 3.35732 151.769 29.6852 151.769 42.3368" stroke="#121826" stroke-width="6" stroke-linecap="round"/>
<path d="M141.37 33.0151V89.4752M222.798 162.391H254.574" stroke="#121826" stroke-width="3" stroke-linecap="round"/>
<path d="M121.321 211.107H109.569V215.151L99.7124 205.294L109.569 195.438V200.492H131.93C138.006 200.492 142.93 195.567 142.93 189.492V182.674" stroke="#121826" stroke-width="3" stroke-linecap="round"/>
<path d="M187.608 35.4437H199.361V39.4875L209.217 29.6307L199.361 19.774V24.8287H176.999C170.924 24.8287 165.999 19.9038 165.999 13.8287" stroke="#121826" stroke-width="3" stroke-linecap="round"/>
<path d="M92.5276 141.707V46.0394C92.5276 36.4938 100.266 28.7555 109.812 28.7555C119.357 28.7555 127.096 36.4938 127.096 46.0394V134.991C127.096 143.827 134.259 150.991 143.096 150.991H173.958C182.717 150.991 189.817 158.091 189.817 166.849C189.817 175.607 182.717 182.707 173.958 182.707H133.528C110.884 182.707 92.5276 164.351 92.5276 141.707Z" stroke="#121826" stroke-width="3" stroke-linecap="round"/>
<path d="M152.925 150.123L152.925 97.1499C152.925 71.7448 173.52 51.1499 198.925 51.1499H249.188C258.828 51.1499 266.643 58.9648 266.643 68.605C266.643 78.2452 258.828 86.0601 249.188 86.0601H204.255C196.523 86.0601 190.255 92.3281 190.255 100.06V109.564H227.585C236.939 109.564 244.521 117.147 244.521 126.501C244.521 135.855 236.939 143.437 227.585 143.437H190.255V196.321C190.255 206.629 181.898 214.986 171.59 214.986C161.282 214.986 152.925 206.629 152.925 196.321V183.144" stroke="#121826" stroke-width="3" stroke-linecap="round"/>
<path d="M232.985 67.558H199.131C183.667 67.558 171.131 80.094 171.131 95.558V150.532" stroke="#121826" stroke-width="3" stroke-linecap="round"/>
<path d="M109.389 61.4558V136.135C109.389 153.256 123.268 167.135 140.389 167.135H159.039" stroke="#121826" stroke-width="3" stroke-linecap="round"/>
<path d="M143.935 126.27H211.513" stroke="#121826" stroke-width="3" stroke-linecap="round"/>
<circle cx="170.749" cy="167.135" r="4.32983" fill="#121826"/>
<circle cx="109.389" cy="48.4077" r="4.32983" fill="#121826"/>
<circle cx="224.059" cy="126.332" r="4.32983" fill="#121826"/>
<circle cx="270.01" cy="139.871" r="3.36716" fill="#121826"/>
<circle cx="169.786" cy="51.1499" r="3.36716" fill="#121826"/>
<circle cx="82.672" cy="128.194" r="2.72742" fill="#121826"/>
<path d="M63.6326 162.468H82.5163" stroke="#121826" stroke-width="3" stroke-linecap="round"/>
<circle cx="60.9948" cy="162.213" r="7.03162" fill="#121826"/>
<path d="M211.727 174.421H230.611" stroke="#121826" stroke-width="3" stroke-linecap="round"/>
<circle cx="209.09" cy="174.167" r="7.03162" fill="#121826"/>
<circle cx="104.147" cy="185.006" r="3.30774" fill="#121826"/>
<circle cx="216.422" cy="196.845" r="3.30774" fill="#121826"/>
<circle cx="246.275" cy="67.4595" r="4.32983" fill="#121826"/>
<circle cx="170.329" cy="197.867" r="4.32983" fill="#121826"/>
<circle cx="262.923" cy="162.42" r="8.34926" stroke="#121826" stroke-width="3" stroke-linecap="round"/>
<circle cx="48.3279" cy="139.093" r="7.32443" stroke="#121826" stroke-width="3" stroke-linecap="round"/>
<circle cx="68.0263" cy="111.321" r="9.759" stroke="#121826" stroke-width="3" stroke-linecap="round"/>
<circle cx="262.923" cy="122.009" r="7.08658" stroke="#121826" stroke-width="3" stroke-linecap="round"/>
<circle cx="74.3378" cy="74.7311" r="7.27652" stroke="#121826" stroke-width="3" stroke-linecap="round"/>
<circle cx="141.172" cy="96.9966" r="6.13675" stroke="#121826" stroke-width="3" stroke-linecap="round"/>
<circle cx="222.973" cy="37.2876" r="4.27255" stroke="#121826" stroke-width="3" stroke-linecap="round"/>
<path d="M14.7285 320.378H28.8882V328.723H3.91918V284.347H14.7285V320.378ZM50.1 329.228C46.6443 329.228 43.5258 328.491 40.7445 327.016C38.0053 325.541 35.835 323.434 34.2336 320.695C32.6743 317.955 31.8947 314.753 31.8947 311.086C31.8947 307.462 32.6954 304.28 34.2968 301.541C35.8982 298.76 38.0896 296.632 40.8709 295.157C43.6523 293.682 46.7708 292.944 50.2264 292.944C53.682 292.944 56.8005 293.682 59.5818 295.157C62.3632 296.632 64.5546 298.76 66.156 301.541C67.7574 304.28 68.558 307.462 68.558 311.086C68.558 314.71 67.7363 317.913 66.0927 320.695C64.4914 323.434 62.2789 325.541 59.4554 327.016C56.6741 328.491 53.5556 329.228 50.1 329.228ZM50.1 319.873C52.1649 319.873 53.9138 319.114 55.3466 317.597C56.8216 316.08 57.559 313.91 57.559 311.086C57.559 308.263 56.8426 306.092 55.4098 304.575C54.0191 303.058 52.2913 302.3 50.2264 302.3C48.1193 302.3 46.3704 303.058 44.9797 304.575C43.5891 306.05 42.8937 308.221 42.8937 311.086C42.8937 313.91 43.568 316.08 44.9165 317.597C46.3072 319.114 48.035 319.873 50.1 319.873ZM95.7849 293.071C99.9148 293.071 103.202 294.419 105.646 297.116C108.132 299.771 109.376 303.437 109.376 308.115V328.723H98.6295V309.569C98.6295 307.209 98.0184 305.376 96.7963 304.07C95.5742 302.763 93.9307 302.11 91.8657 302.11C89.8008 302.11 88.1572 302.763 86.9351 304.07C85.713 305.376 85.102 307.209 85.102 309.569V328.723H74.2926V293.45H85.102V298.128C86.1977 296.568 87.6726 295.346 89.5269 294.461C91.3811 293.534 93.4671 293.071 95.7849 293.071ZM130.288 292.944C132.774 292.944 134.945 293.45 136.799 294.461C138.695 295.473 140.149 296.8 141.161 298.444V293.45H151.97V328.659C151.97 331.904 151.317 334.833 150.01 337.446C148.746 340.101 146.787 342.208 144.132 343.767C141.519 345.326 138.253 346.106 134.334 346.106C129.108 346.106 124.873 344.863 121.628 342.376C118.383 339.932 116.529 336.603 116.065 332.389H126.748C127.085 333.737 127.886 334.791 129.15 335.549C130.415 336.35 131.974 336.751 133.828 336.751C136.062 336.751 137.832 336.097 139.138 334.791C140.486 333.527 141.161 331.483 141.161 328.659V323.665C140.107 325.309 138.653 326.658 136.799 327.711C134.945 328.723 132.774 329.228 130.288 329.228C127.38 329.228 124.746 328.491 122.387 327.016C120.027 325.499 118.151 323.371 116.761 320.631C115.412 317.85 114.738 314.647 114.738 311.023C114.738 307.399 115.412 304.217 116.761 301.478C118.151 298.739 120.027 296.632 122.387 295.157C124.746 293.682 127.38 292.944 130.288 292.944ZM141.161 311.086C141.161 308.389 140.402 306.261 138.885 304.702C137.41 303.142 135.598 302.363 133.449 302.363C131.3 302.363 129.466 303.142 127.949 304.702C126.474 306.219 125.737 308.326 125.737 311.023C125.737 313.72 126.474 315.869 127.949 317.471C129.466 319.03 131.3 319.81 133.449 319.81C135.598 319.81 137.41 319.03 138.885 317.471C140.402 315.911 141.161 313.783 141.161 311.086ZM188.678 284.347V293.007H170.6V302.363H184.127V310.77H170.6V328.723H159.79V284.347H188.678ZM205.169 281.945V328.723H194.36V281.945H205.169ZM229.058 329.228C225.603 329.228 222.484 328.491 219.703 327.016C216.964 325.541 214.793 323.434 213.192 320.695C211.633 317.955 210.853 314.753 210.853 311.086C210.853 307.462 211.654 304.28 213.255 301.541C214.857 298.76 217.048 296.632 219.829 295.157C222.611 293.682 225.729 292.944 229.185 292.944C232.64 292.944 235.759 293.682 238.54 295.157C241.322 296.632 243.513 298.76 245.114 301.541C246.716 304.28 247.516 307.462 247.516 311.086C247.516 314.71 246.695 317.913 245.051 320.695C243.45 323.434 241.237 325.541 238.414 327.016C235.632 328.491 232.514 329.228 229.058 329.228ZM229.058 319.873C231.123 319.873 232.872 319.114 234.305 317.597C235.78 316.08 236.517 313.91 236.517 311.086C236.517 308.263 235.801 306.092 234.368 304.575C232.978 303.058 231.25 302.3 229.185 302.3C227.078 302.3 225.329 303.058 223.938 304.575C222.547 306.05 221.852 308.221 221.852 311.086C221.852 313.91 222.526 316.08 223.875 317.597C225.266 319.114 226.993 319.873 229.058 319.873ZM251.102 311.023C251.102 307.399 251.776 304.217 253.125 301.478C254.515 298.739 256.391 296.632 258.75 295.157C261.11 293.682 263.744 292.944 266.652 292.944C269.138 292.944 271.309 293.45 273.163 294.461C275.059 295.473 276.513 296.8 277.525 298.444V293.45H288.334V328.723H277.525V323.729C276.471 325.372 274.996 326.7 273.1 327.711C271.246 328.723 269.075 329.228 266.589 329.228C263.723 329.228 261.11 328.491 258.75 327.016C256.391 325.499 254.515 323.371 253.125 320.631C251.776 317.85 251.102 314.647 251.102 311.023ZM277.525 311.086C277.525 308.389 276.766 306.261 275.249 304.702C273.774 303.142 271.962 302.363 269.813 302.363C267.663 302.363 265.83 303.142 264.313 304.702C262.838 306.219 262.101 308.326 262.101 311.023C262.101 313.72 262.838 315.869 264.313 317.471C265.83 319.03 267.663 319.81 269.813 319.81C271.962 319.81 273.774 319.03 275.249 317.471C276.766 315.911 277.525 313.783 277.525 311.086ZM315.813 319.557V328.723H310.314C306.395 328.723 303.339 327.774 301.148 325.878C298.957 323.939 297.861 320.8 297.861 316.459V302.426H293.562V293.45H297.861V284.853H308.67V293.45H315.75V302.426H308.67V316.586C308.67 317.639 308.923 318.398 309.429 318.861C309.934 319.325 310.777 319.557 311.957 319.557H315.813Z" fill="#121826"/>
<path d="M5.75626 351.614V365.124H3.99245V351.614H5.75626ZM13.9375 354.309C15.2297 354.309 16.2763 354.703 17.0775 355.491C17.8786 356.266 18.2792 357.39 18.2792 358.864V365.124H16.5347V359.115C16.5347 358.056 16.2699 357.248 15.7401 356.693C15.2103 356.124 14.4867 355.84 13.5692 355.84C12.6389 355.84 11.8959 356.131 11.3402 356.712C10.7975 357.294 10.5262 358.14 10.5262 359.251V365.124H8.76236V354.502H10.5262V356.014C10.8751 355.472 11.3467 355.052 11.9411 354.754C12.5484 354.457 13.2139 354.309 13.9375 354.309ZM23.3118 355.956V362.217C23.3118 362.734 23.4216 363.102 23.6413 363.321C23.861 363.528 24.2422 363.632 24.7849 363.632H26.0835V365.124H24.4941C23.5121 365.124 22.7756 364.898 22.2845 364.446C21.7935 363.993 21.548 363.25 21.548 362.217V355.956H20.1718V354.502H21.548V351.828H23.3118V354.502H26.0835V355.956H23.3118ZM37.9118 359.406C37.9118 359.742 37.8924 360.098 37.8537 360.472H29.3641C29.4287 361.519 29.7841 362.339 30.4302 362.934C31.0892 363.515 31.8839 363.806 32.8142 363.806C33.5766 363.806 34.2098 363.632 34.7137 363.283C35.2306 362.921 35.5924 362.443 35.7991 361.848H37.6986C37.4143 362.869 36.8458 363.703 35.993 364.349C35.1401 364.982 34.0805 365.299 32.8142 365.299C31.8063 365.299 30.9018 365.072 30.1007 364.62C29.3125 364.168 28.6922 363.528 28.24 362.701C27.7877 361.861 27.5616 360.892 27.5616 359.794C27.5616 358.696 27.7812 357.733 28.2206 356.906C28.6599 356.079 29.2737 355.446 30.0619 355.006C30.8631 354.554 31.7805 354.328 32.8142 354.328C33.8221 354.328 34.7137 354.548 35.489 354.987C36.2643 355.426 36.8587 356.034 37.2722 356.809C37.6986 357.571 37.9118 358.437 37.9118 359.406ZM36.0899 359.038C36.0899 358.366 35.9413 357.791 35.6441 357.313C35.3469 356.822 34.9398 356.454 34.423 356.208C33.919 355.95 33.3569 355.82 32.7367 355.82C31.8451 355.82 31.0827 356.105 30.4496 356.673C29.8293 357.242 29.474 358.03 29.3835 359.038H36.0899ZM42.0038 350.781V365.124H40.24V350.781H42.0038ZM46.7737 350.781V365.124H45.0099V350.781H46.7737ZM50.6908 352.777C50.3548 352.777 50.0706 352.661 49.838 352.429C49.6054 352.196 49.4891 351.912 49.4891 351.576C49.4891 351.24 49.6054 350.955 49.838 350.723C50.0706 350.49 50.3548 350.374 50.6908 350.374C51.0138 350.374 51.2852 350.49 51.5049 350.723C51.7374 350.955 51.8537 351.24 51.8537 351.576C51.8537 351.912 51.7374 352.196 51.5049 352.429C51.2852 352.661 51.0138 352.777 50.6908 352.777ZM51.5436 354.502V365.124H49.7798V354.502H51.5436ZM58.9302 354.328C59.8476 354.328 60.6488 354.528 61.3336 354.929C62.0314 355.329 62.5482 355.833 62.8842 356.441V354.502H64.6674V365.357C64.6674 366.326 64.4606 367.185 64.0471 367.935C63.6337 368.697 63.0393 369.291 62.264 369.718C61.5016 370.144 60.61 370.357 59.5892 370.357C58.1936 370.357 57.0307 370.028 56.1003 369.369C55.17 368.71 54.6208 367.812 54.4528 366.675H56.1972C56.3911 367.321 56.7916 367.838 57.399 368.225C58.0063 368.626 58.7363 368.826 59.5892 368.826C60.5583 368.826 61.3465 368.522 61.9538 367.915C62.5741 367.308 62.8842 366.455 62.8842 365.357V363.128C62.5353 363.748 62.0184 364.265 61.3336 364.678C60.6488 365.092 59.8476 365.299 58.9302 365.299C57.9869 365.299 57.1276 365.066 56.3523 364.601C55.5899 364.136 54.9891 363.483 54.5497 362.643C54.1104 361.803 53.8907 360.847 53.8907 359.775C53.8907 358.689 54.1104 357.739 54.5497 356.925C54.9891 356.098 55.5899 355.459 56.3523 355.006C57.1276 354.554 57.9869 354.328 58.9302 354.328ZM62.8842 359.794C62.8842 358.993 62.7227 358.295 62.3996 357.701C62.0766 357.106 61.6373 356.654 61.0816 356.344C60.5389 356.021 59.9381 355.859 59.2791 355.859C58.6201 355.859 58.0192 356.014 57.4765 356.324C56.9338 356.635 56.5009 357.087 56.1779 357.681C55.8548 358.276 55.6933 358.973 55.6933 359.775C55.6933 360.589 55.8548 361.299 56.1779 361.907C56.5009 362.501 56.9338 362.96 57.4765 363.283C58.0192 363.593 58.6201 363.748 59.2791 363.748C59.9381 363.748 60.5389 363.593 61.0816 363.283C61.6373 362.96 62.0766 362.501 62.3996 361.907C62.7227 361.299 62.8842 360.595 62.8842 359.794ZM77.3393 359.406C77.3393 359.742 77.3199 360.098 77.2812 360.472H68.7916C68.8562 361.519 69.2116 362.339 69.8577 362.934C70.5167 363.515 71.3113 363.806 72.2417 363.806C73.0041 363.806 73.6372 363.632 74.1412 363.283C74.6581 362.921 75.0199 362.443 75.2266 361.848H77.1261C76.8418 362.869 76.2733 363.703 75.4204 364.349C74.5676 364.982 73.508 365.299 72.2417 365.299C71.2338 365.299 70.3293 365.072 69.5282 364.62C68.7399 364.168 68.1197 363.528 67.6674 362.701C67.2152 361.861 66.989 360.892 66.989 359.794C66.989 358.696 67.2087 357.733 67.6481 356.906C68.0874 356.079 68.7012 355.446 69.4894 355.006C70.2905 354.554 71.208 354.328 72.2417 354.328C73.2496 354.328 74.1412 354.548 74.9165 354.987C75.6918 355.426 76.2862 356.034 76.6997 356.809C77.1261 357.571 77.3393 358.437 77.3393 359.406ZM75.5173 359.038C75.5173 358.366 75.3687 357.791 75.0715 357.313C74.7744 356.822 74.3673 356.454 73.8505 356.208C73.3465 355.95 72.7844 355.82 72.1642 355.82C71.2726 355.82 70.5102 356.105 69.877 356.673C69.2568 357.242 68.9015 358.03 68.811 359.038H75.5173ZM84.8426 354.309C86.1348 354.309 87.1814 354.703 87.9826 355.491C88.7837 356.266 89.1843 357.39 89.1843 358.864V365.124H87.4399V359.115C87.4399 358.056 87.175 357.248 86.6452 356.693C86.1154 356.124 85.3918 355.84 84.4743 355.84C83.544 355.84 82.801 356.131 82.2453 356.712C81.7026 357.294 81.4313 358.14 81.4313 359.251V365.124H79.6675V354.502H81.4313V356.014C81.7802 355.472 82.2518 355.052 82.8462 354.754C83.4535 354.457 84.119 354.309 84.8426 354.309ZM94.2169 355.956V362.217C94.2169 362.734 94.3267 363.102 94.5464 363.321C94.7661 363.528 95.1473 363.632 95.69 363.632H96.9886V365.124H95.3992C94.4172 365.124 93.6807 364.898 93.1896 364.446C92.6986 363.993 92.4531 363.25 92.4531 362.217V355.956H91.077V354.502H92.4531V351.828H94.2169V354.502H96.9886V355.956H94.2169ZM103.634 358.36C103.634 357.042 103.931 355.859 104.526 354.813C105.12 353.753 105.928 352.926 106.948 352.332C107.982 351.737 109.126 351.44 110.379 351.44C111.852 351.44 113.138 351.795 114.236 352.506C115.335 353.217 116.136 354.225 116.64 355.53H114.527C114.152 354.716 113.61 354.089 112.899 353.65C112.201 353.21 111.361 352.991 110.379 352.991C109.436 352.991 108.59 353.21 107.84 353.65C107.091 354.089 106.503 354.716 106.076 355.53C105.65 356.331 105.437 357.274 105.437 358.36C105.437 359.432 105.65 360.375 106.076 361.189C106.503 361.991 107.091 362.611 107.84 363.05C108.59 363.489 109.436 363.709 110.379 363.709C111.361 363.709 112.201 363.496 112.899 363.07C113.61 362.63 114.152 362.003 114.527 361.189H116.64C116.136 362.482 115.335 363.483 114.236 364.194C113.138 364.891 111.852 365.24 110.379 365.24C109.126 365.24 107.982 364.95 106.948 364.368C105.928 363.774 105.12 362.953 104.526 361.907C103.931 360.86 103.634 359.678 103.634 358.36ZM123.898 365.299C122.903 365.299 121.998 365.072 121.184 364.62C120.383 364.168 119.75 363.528 119.285 362.701C118.832 361.861 118.606 360.892 118.606 359.794C118.606 358.708 118.839 357.752 119.304 356.925C119.782 356.085 120.428 355.446 121.242 355.006C122.056 354.554 122.967 354.328 123.975 354.328C124.983 354.328 125.894 354.554 126.708 355.006C127.522 355.446 128.162 356.079 128.627 356.906C129.105 357.733 129.344 358.696 129.344 359.794C129.344 360.892 129.099 361.861 128.608 362.701C128.13 363.528 127.477 364.168 126.65 364.62C125.823 365.072 124.906 365.299 123.898 365.299ZM123.898 363.748C124.531 363.748 125.125 363.599 125.681 363.302C126.237 363.005 126.682 362.559 127.018 361.965C127.367 361.37 127.542 360.647 127.542 359.794C127.542 358.941 127.374 358.217 127.038 357.623C126.702 357.029 126.262 356.589 125.72 356.305C125.177 356.008 124.589 355.859 123.956 355.859C123.31 355.859 122.715 356.008 122.173 356.305C121.643 356.589 121.216 357.029 120.893 357.623C120.57 358.217 120.409 358.941 120.409 359.794C120.409 360.66 120.564 361.39 120.874 361.984C121.197 362.579 121.624 363.024 122.153 363.321C122.683 363.606 123.265 363.748 123.898 363.748ZM133.427 350.781V365.124H131.663V350.781H133.427ZM138.197 350.781V365.124H136.433V350.781H138.197ZM140.544 359.775C140.544 358.689 140.764 357.739 141.203 356.925C141.642 356.098 142.243 355.459 143.006 355.006C143.781 354.554 144.64 354.328 145.584 354.328C146.514 354.328 147.322 354.528 148.006 354.929C148.691 355.329 149.202 355.833 149.538 356.441V354.502H151.321V365.124H149.538V363.147C149.189 363.767 148.665 364.284 147.968 364.698C147.283 365.098 146.482 365.299 145.564 365.299C144.621 365.299 143.768 365.066 143.006 364.601C142.243 364.136 141.642 363.483 141.203 362.643C140.764 361.803 140.544 360.847 140.544 359.775ZM149.538 359.794C149.538 358.993 149.376 358.295 149.053 357.701C148.73 357.106 148.291 356.654 147.735 356.344C147.192 356.021 146.591 355.859 145.932 355.859C145.273 355.859 144.673 356.014 144.13 356.324C143.587 356.635 143.154 357.087 142.831 357.681C142.508 358.276 142.347 358.973 142.347 359.775C142.347 360.589 142.508 361.299 142.831 361.907C143.154 362.501 143.587 362.96 144.13 363.283C144.673 363.593 145.273 363.748 145.932 363.748C146.591 363.748 147.192 363.593 147.735 363.283C148.291 362.96 148.73 362.501 149.053 361.907C149.376 361.299 149.538 360.595 149.538 359.794ZM156.065 356.479C156.427 355.846 156.957 355.329 157.655 354.929C158.352 354.528 159.147 354.328 160.039 354.328C160.995 354.328 161.854 354.554 162.617 355.006C163.379 355.459 163.98 356.098 164.419 356.925C164.858 357.739 165.078 358.689 165.078 359.775C165.078 360.847 164.858 361.803 164.419 362.643C163.98 363.483 163.372 364.136 162.597 364.601C161.835 365.066 160.982 365.299 160.039 365.299C159.121 365.299 158.314 365.098 157.616 364.698C156.931 364.297 156.414 363.787 156.065 363.166V365.124H154.301V350.781H156.065V356.479ZM163.276 359.775C163.276 358.973 163.114 358.276 162.791 357.681C162.468 357.087 162.029 356.635 161.473 356.324C160.93 356.014 160.329 355.859 159.67 355.859C159.024 355.859 158.423 356.021 157.868 356.344C157.325 356.654 156.886 357.113 156.55 357.72C156.227 358.314 156.065 359.006 156.065 359.794C156.065 360.595 156.227 361.299 156.55 361.907C156.886 362.501 157.325 362.96 157.868 363.283C158.423 363.593 159.024 363.748 159.67 363.748C160.329 363.748 160.93 363.593 161.473 363.283C162.029 362.96 162.468 362.501 162.791 361.907C163.114 361.299 163.276 360.589 163.276 359.775ZM172.032 365.299C171.037 365.299 170.133 365.072 169.319 364.62C168.517 364.168 167.884 363.528 167.419 362.701C166.967 361.861 166.741 360.892 166.741 359.794C166.741 358.708 166.973 357.752 167.439 356.925C167.917 356.085 168.563 355.446 169.377 355.006C170.191 354.554 171.102 354.328 172.11 354.328C173.118 354.328 174.029 354.554 174.843 355.006C175.657 355.446 176.296 356.079 176.762 356.906C177.24 357.733 177.479 358.696 177.479 359.794C177.479 360.892 177.233 361.861 176.742 362.701C176.264 363.528 175.611 364.168 174.785 364.62C173.958 365.072 173.04 365.299 172.032 365.299ZM172.032 363.748C172.665 363.748 173.26 363.599 173.815 363.302C174.371 363.005 174.817 362.559 175.153 361.965C175.502 361.37 175.676 360.647 175.676 359.794C175.676 358.941 175.508 358.217 175.172 357.623C174.836 357.029 174.397 356.589 173.854 356.305C173.311 356.008 172.723 355.859 172.09 355.859C171.444 355.859 170.85 356.008 170.307 356.305C169.777 356.589 169.351 357.029 169.028 357.623C168.705 358.217 168.543 358.941 168.543 359.794C168.543 360.66 168.698 361.39 169.009 361.984C169.332 362.579 169.758 363.024 170.288 363.321C170.818 363.606 171.399 363.748 172.032 363.748ZM181.562 356.228C181.872 355.62 182.311 355.149 182.88 354.813C183.461 354.477 184.165 354.309 184.992 354.309V356.131H184.527C182.55 356.131 181.562 357.203 181.562 359.348V365.124H179.798V354.502H181.562V356.228ZM186.369 359.775C186.369 358.689 186.589 357.739 187.028 356.925C187.468 356.098 188.069 355.459 188.831 355.006C189.606 354.554 190.465 354.328 191.409 354.328C192.339 354.328 193.147 354.528 193.832 354.929C194.516 355.329 195.027 355.833 195.363 356.441V354.502H197.146V365.124H195.363V363.147C195.014 363.767 194.491 364.284 193.793 364.698C193.108 365.098 192.307 365.299 191.389 365.299C190.446 365.299 189.593 365.066 188.831 364.601C188.069 364.136 187.468 363.483 187.028 362.643C186.589 361.803 186.369 360.847 186.369 359.775ZM195.363 359.794C195.363 358.993 195.201 358.295 194.878 357.701C194.555 357.106 194.116 356.654 193.56 356.344C193.018 356.021 192.417 355.859 191.758 355.859C191.099 355.859 190.498 356.014 189.955 356.324C189.412 356.635 188.979 357.087 188.656 357.681C188.333 358.276 188.172 358.973 188.172 359.775C188.172 360.589 188.333 361.299 188.656 361.907C188.979 362.501 189.412 362.96 189.955 363.283C190.498 363.593 191.099 363.748 191.758 363.748C192.417 363.748 193.018 363.593 193.56 363.283C194.116 362.96 194.555 362.501 194.878 361.907C195.201 361.299 195.363 360.595 195.363 359.794ZM202.278 355.956V362.217C202.278 362.734 202.388 363.102 202.608 363.321C202.827 363.528 203.208 363.632 203.751 363.632H205.05V365.124H203.46C202.478 365.124 201.742 364.898 201.251 364.446C200.76 363.993 200.514 363.25 200.514 362.217V355.956H199.138V354.502H200.514V351.828H202.278V354.502H205.05V355.956H202.278ZM208.098 352.777C207.762 352.777 207.478 352.661 207.245 352.429C207.012 352.196 206.896 351.912 206.896 351.576C206.896 351.24 207.012 350.955 207.245 350.723C207.478 350.49 207.762 350.374 208.098 350.374C208.421 350.374 208.692 350.49 208.912 350.723C209.145 350.955 209.261 351.24 209.261 351.576C209.261 351.912 209.145 352.196 208.912 352.429C208.692 352.661 208.421 352.777 208.098 352.777ZM208.951 354.502V365.124H207.187V354.502H208.951ZM216.589 365.299C215.594 365.299 214.69 365.072 213.876 364.62C213.075 364.168 212.441 363.528 211.976 362.701C211.524 361.861 211.298 360.892 211.298 359.794C211.298 358.708 211.53 357.752 211.996 356.925C212.474 356.085 213.12 355.446 213.934 355.006C214.748 354.554 215.659 354.328 216.667 354.328C217.675 354.328 218.586 354.554 219.4 355.006C220.214 355.446 220.853 356.079 221.319 356.906C221.797 357.733 222.036 358.696 222.036 359.794C222.036 360.892 221.79 361.861 221.299 362.701C220.821 363.528 220.169 364.168 219.342 364.62C218.515 365.072 217.597 365.299 216.589 365.299ZM216.589 363.748C217.222 363.748 217.817 363.599 218.372 363.302C218.928 363.005 219.374 362.559 219.71 361.965C220.059 361.37 220.233 360.647 220.233 359.794C220.233 358.941 220.065 358.217 219.729 357.623C219.393 357.029 218.954 356.589 218.411 356.305C217.868 356.008 217.281 355.859 216.647 355.859C216.001 355.859 215.407 356.008 214.864 356.305C214.334 356.589 213.908 357.029 213.585 357.623C213.262 358.217 213.1 358.941 213.1 359.794C213.1 360.66 213.255 361.39 213.566 361.984C213.889 362.579 214.315 363.024 214.845 363.321C215.375 363.606 215.956 363.748 216.589 363.748ZM229.53 354.309C230.822 354.309 231.869 354.703 232.67 355.491C233.471 356.266 233.872 357.39 233.872 358.864V365.124H232.127V359.115C232.127 358.056 231.862 357.248 231.332 356.693C230.803 356.124 230.079 355.84 229.162 355.84C228.231 355.84 227.488 356.131 226.933 356.712C226.39 357.294 226.119 358.14 226.119 359.251V365.124H224.355V354.502H226.119V356.014C226.467 355.472 226.939 355.052 227.534 354.754C228.141 354.457 228.806 354.309 229.53 354.309ZM241.261 358.36C241.261 357.042 241.558 355.859 242.153 354.813C242.747 353.753 243.555 352.926 244.576 352.332C245.609 351.737 246.753 351.44 248.006 351.44C249.479 351.44 250.765 351.795 251.863 352.506C252.962 353.217 253.763 354.225 254.267 355.53H252.154C251.779 354.716 251.237 354.089 250.526 353.65C249.828 353.21 248.988 352.991 248.006 352.991C247.063 352.991 246.217 353.21 245.467 353.65C244.718 354.089 244.13 354.716 243.703 355.53C243.277 356.331 243.064 357.274 243.064 358.36C243.064 359.432 243.277 360.375 243.703 361.189C244.13 361.991 244.718 362.611 245.467 363.05C246.217 363.489 247.063 363.709 248.006 363.709C248.988 363.709 249.828 363.496 250.526 363.07C251.237 362.63 251.779 362.003 252.154 361.189H254.267C253.763 362.482 252.962 363.483 251.863 364.194C250.765 364.891 249.479 365.24 248.006 365.24C246.753 365.24 245.609 364.95 244.576 364.368C243.555 363.774 242.747 362.953 242.153 361.907C241.558 360.86 241.261 359.678 241.261 358.36ZM256.233 359.775C256.233 358.689 256.453 357.739 256.892 356.925C257.332 356.098 257.933 355.459 258.695 355.006C259.47 354.554 260.33 354.328 261.273 354.328C262.203 354.328 263.011 354.528 263.696 354.929C264.38 355.329 264.891 355.833 265.227 356.441V354.502H267.01V365.124H265.227V363.147C264.878 363.767 264.355 364.284 263.657 364.698C262.972 365.098 262.171 365.299 261.253 365.299C260.31 365.299 259.457 365.066 258.695 364.601C257.933 364.136 257.332 363.483 256.892 362.643C256.453 361.803 256.233 360.847 256.233 359.775ZM265.227 359.794C265.227 358.993 265.065 358.295 264.742 357.701C264.419 357.106 263.98 356.654 263.424 356.344C262.882 356.021 262.281 355.859 261.622 355.859C260.963 355.859 260.362 356.014 259.819 356.324C259.276 356.635 258.844 357.087 258.521 357.681C258.197 358.276 258.036 358.973 258.036 359.775C258.036 360.589 258.197 361.299 258.521 361.907C258.844 362.501 259.276 362.96 259.819 363.283C260.362 363.593 260.963 363.748 261.622 363.748C262.281 363.748 262.882 363.593 263.424 363.283C263.98 362.96 264.419 362.501 264.742 361.907C265.065 361.299 265.227 360.595 265.227 359.794ZM275.166 354.309C276.458 354.309 277.505 354.703 278.306 355.491C279.107 356.266 279.508 357.39 279.508 358.864V365.124H277.763V359.115C277.763 358.056 277.498 357.248 276.968 356.693C276.439 356.124 275.715 355.84 274.798 355.84C273.867 355.84 273.124 356.131 272.569 356.712C272.026 357.294 271.755 358.14 271.755 359.251V365.124H269.991V354.502H271.755V356.014C272.103 355.472 272.575 355.052 273.169 354.754C273.777 354.457 274.442 354.309 275.166 354.309ZM286.343 363.496L289.638 354.502H291.518L287.351 365.124H285.296L281.129 354.502H283.028L286.343 363.496ZM292.594 359.775C292.594 358.689 292.814 357.739 293.253 356.925C293.693 356.098 294.294 355.459 295.056 355.006C295.831 354.554 296.691 354.328 297.634 354.328C298.564 354.328 299.372 354.528 300.057 354.929C300.742 355.329 301.252 355.833 301.588 356.441V354.502H303.371V365.124H301.588V363.147C301.239 363.767 300.716 364.284 300.018 364.698C299.333 365.098 298.532 365.299 297.615 365.299C296.671 365.299 295.818 365.066 295.056 364.601C294.294 364.136 293.693 363.483 293.253 362.643C292.814 361.803 292.594 360.847 292.594 359.775ZM301.588 359.794C301.588 358.993 301.426 358.295 301.103 357.701C300.78 357.106 300.341 356.654 299.785 356.344C299.243 356.021 298.642 355.859 297.983 355.859C297.324 355.859 296.723 356.014 296.18 356.324C295.638 356.635 295.205 357.087 294.882 357.681C294.559 358.276 294.397 358.973 294.397 359.775C294.397 360.589 294.559 361.299 294.882 361.907C295.205 362.501 295.638 362.96 296.18 363.283C296.723 363.593 297.324 363.748 297.983 363.748C298.642 363.748 299.243 363.593 299.785 363.283C300.341 362.96 300.78 362.501 301.103 361.907C301.426 361.299 301.588 360.595 301.588 359.794ZM310.112 365.299C309.298 365.299 308.568 365.163 307.922 364.891C307.276 364.607 306.765 364.22 306.391 363.729C306.016 363.225 305.809 362.65 305.77 362.003H307.592C307.644 362.533 307.89 362.966 308.329 363.302C308.781 363.638 309.369 363.806 310.093 363.806C310.765 363.806 311.294 363.657 311.682 363.36C312.07 363.063 312.263 362.688 312.263 362.236C312.263 361.771 312.057 361.428 311.643 361.209C311.23 360.976 310.59 360.75 309.724 360.53C308.936 360.324 308.29 360.117 307.786 359.91C307.295 359.691 306.869 359.374 306.507 358.96C306.158 358.534 305.984 357.978 305.984 357.294C305.984 356.751 306.145 356.253 306.468 355.801C306.791 355.349 307.25 354.993 307.844 354.735C308.439 354.464 309.117 354.328 309.879 354.328C311.055 354.328 312.005 354.625 312.729 355.22C313.452 355.814 313.84 356.628 313.892 357.662H312.128C312.089 357.106 311.863 356.66 311.449 356.324C311.049 355.988 310.506 355.82 309.821 355.82C309.188 355.82 308.684 355.956 308.309 356.228C307.935 356.499 307.747 356.854 307.747 357.294C307.747 357.642 307.857 357.933 308.077 358.166C308.309 358.385 308.594 358.566 308.93 358.708C309.279 358.838 309.757 358.986 310.364 359.154C311.126 359.361 311.747 359.568 312.225 359.775C312.703 359.968 313.11 360.266 313.446 360.666C313.795 361.067 313.976 361.59 313.989 362.236C313.989 362.818 313.827 363.341 313.504 363.806C313.181 364.271 312.722 364.64 312.128 364.911C311.546 365.169 310.874 365.299 310.112 365.299Z" fill="#121826"/>
</svg>
