<svg width="276" height="239" viewBox="0 0 276 239" fill="none" xmlns="http://www.w3.org/2000/svg">
<path d="M45.88 75.0575H19.6489M19.6489 87.3862H40.765M34.9941 138.93H58.3398M223.276 100.257H251.822M42.5965 162.468H61.4802" stroke="#121826" stroke-width="3" stroke-linecap="round"/>
<path d="M132.801 15.9056C93.69 -13.7434 62.283 13.8084 57.521 37.4127C11.2051 49.823 16.5963 87.3571 25.0814 104.573C15.1782 108.802 -2.74133 124.302 4.80667 152.472C12.3547 180.642 44.6152 185.498 59.802 184.405V197.076C60.8157 209.241 69.0895 227.893 88.6928 233.146C103.058 236.995 124.926 237.866 138.344 222.366C173.098 250.694 219.295 228.367 214.915 182.691C232.32 184.395 265.887 182.691 271.792 154.097C277.697 125.503 259.049 112.138 250.968 103.747C260.085 86.6675 263.045 42.2289 216.608 37.735C215.676 26.3832 199.629 3.35732 174.511 3.35732C142.187 3.35732 130.733 29.6852 130.733 42.3368" stroke="#121826" stroke-width="6" stroke-linecap="round"/>
<path d="M120.334 33.0151V89.4752M201.762 162.391H233.538" stroke="#121826" stroke-width="3" stroke-linecap="round"/>
<path d="M100.285 211.107H88.5331V215.151L78.6763 205.294L88.5331 195.438V200.492H110.894C116.969 200.492 121.894 195.567 121.894 189.492V182.674" stroke="#121826" stroke-width="3" stroke-linecap="round"/>
<path d="M166.572 35.4437H178.325V39.4875L188.181 29.6307L178.325 19.774V24.8287H155.963C149.888 24.8287 144.963 19.9038 144.963 13.8287" stroke="#121826" stroke-width="3" stroke-linecap="round"/>
<path d="M71.4916 141.707V46.0394C71.4916 36.4938 79.2299 28.7555 88.7756 28.7555C98.3212 28.7555 106.06 36.4938 106.06 46.0394V134.991C106.06 143.827 113.223 150.991 122.06 150.991H152.922C161.681 150.991 168.781 158.091 168.781 166.849C168.781 175.607 161.681 182.707 152.922 182.707H112.492C89.8479 182.707 71.4916 164.351 71.4916 141.707Z" stroke="#121826" stroke-width="3" stroke-linecap="round"/>
<path d="M131.889 150.123L131.889 97.1499C131.889 71.7448 152.484 51.1499 177.889 51.1499H228.152C237.792 51.1499 245.607 58.9648 245.607 68.605C245.607 78.2452 237.792 86.0601 228.152 86.0601H183.219C175.487 86.0601 169.219 92.3281 169.219 100.06V109.564H206.549C215.903 109.564 223.485 117.147 223.485 126.501C223.485 135.855 215.903 143.437 206.549 143.437H169.219V196.321C169.219 206.629 160.862 214.986 150.554 214.986C140.246 214.986 131.889 206.629 131.889 196.321V183.144" stroke="#121826" stroke-width="3" stroke-linecap="round"/>
<path d="M211.949 67.558H178.095C162.631 67.558 150.095 80.094 150.095 95.558V150.532" stroke="#121826" stroke-width="3" stroke-linecap="round"/>
<path d="M88.353 61.4558V136.135C88.353 153.256 102.232 167.135 119.353 167.135H138.003" stroke="#121826" stroke-width="3" stroke-linecap="round"/>
<path d="M122.899 126.27H190.477" stroke="#121826" stroke-width="3" stroke-linecap="round"/>
<circle cx="149.713" cy="167.135" r="4.32983" fill="#121826"/>
<circle cx="88.353" cy="48.4077" r="4.32983" fill="#121826"/>
<circle cx="203.023" cy="126.332" r="4.32983" fill="#121826"/>
<circle cx="248.974" cy="139.871" r="3.36716" fill="#121826"/>
<circle cx="148.75" cy="51.1499" r="3.36716" fill="#121826"/>
<circle cx="61.6359" cy="128.194" r="2.72742" fill="#121826"/>
<path d="M42.5965 162.468H61.4803" stroke="#121826" stroke-width="3" stroke-linecap="round"/>
<circle cx="39.9587" cy="162.213" r="7.03162" fill="#121826"/>
<path d="M190.691 174.421H209.575" stroke="#121826" stroke-width="3" stroke-linecap="round"/>
<circle cx="188.054" cy="174.167" r="7.03162" fill="#121826"/>
<circle cx="83.1105" cy="185.006" r="3.30774" fill="#121826"/>
<circle cx="195.386" cy="196.845" r="3.30774" fill="#121826"/>
<circle cx="225.239" cy="67.4595" r="4.32983" fill="#121826"/>
<circle cx="149.293" cy="197.867" r="4.32983" fill="#121826"/>
<circle cx="241.887" cy="162.42" r="8.34926" stroke="#121826" stroke-width="3" stroke-linecap="round"/>
<circle cx="27.2918" cy="139.093" r="7.32443" stroke="#121826" stroke-width="3" stroke-linecap="round"/>
<circle cx="46.9903" cy="111.321" r="9.759" stroke="#121826" stroke-width="3" stroke-linecap="round"/>
<circle cx="241.887" cy="122.009" r="7.08658" stroke="#121826" stroke-width="3" stroke-linecap="round"/>
<circle cx="53.3017" cy="74.7311" r="7.27652" stroke="#121826" stroke-width="3" stroke-linecap="round"/>
<circle cx="120.136" cy="96.9966" r="6.13675" stroke="#121826" stroke-width="3" stroke-linecap="round"/>
<circle cx="201.937" cy="37.2876" r="4.27255" stroke="#121826" stroke-width="3" stroke-linecap="round"/>
</svg>
